<svg width="182" height="182" viewBox="0 0 182 182" fill="none" xmlns="http://www.w3.org/2000/svg">
<rect width="182" height="182" rx="91" fill="#F8A458"/>
<path d="M86.2036 55.0146C87.8751 56.3427 89.9597 57.1709 92.2551 57.1709C94.5439 57.1709 96.622 56.3493 98.2914 55.0277C101.261 57.2361 101.476 61.7204 98.387 64.1201C97.1306 65.1092 96.6546 66.7655 97.2328 68.1566C98.0762 70.1608 100.608 70.8824 102.441 69.5087C109.49 64.0832 108.61 53.7843 101.85 49.2674C101.965 48.6588 102.037 48.0328 102.037 47.3894C102.037 44.005 100.309 41.0205 97.6892 39.2642V30H95.5156V33.2605H88.9946V30H86.8209V39.2642C84.2016 41.0205 82.4735 44.0071 82.4735 47.3894C82.4735 48.035 82.5453 48.6632 82.6648 49.274C78.9391 51.7498 76.8329 56.1036 77.2893 60.6379L79.4521 60.4184C79.0956 56.8948 80.615 53.4931 83.3647 51.415C83.7038 52.1606 84.1494 52.8388 84.6537 53.4691C82.567 55.1907 81.3889 58.0252 81.728 60.7836L83.8842 60.5184C83.6256 58.4099 84.5668 56.2493 86.2036 55.0146ZM101.124 67.7784C100.459 68.2762 99.5412 68.0371 99.2369 67.3198C99.0652 66.9068 99.1804 66.2634 99.726 65.833C103.865 62.616 103.712 56.6362 99.839 53.4909C100.354 52.8518 100.806 52.1649 101.15 51.4107C106.206 55.2624 106.79 63.4159 101.124 67.7784ZM88.9946 35.4342H95.5156V38.2078C93.2702 37.4079 91.2421 37.4079 88.9946 38.2078V35.4342ZM92.2551 39.7815C96.4502 39.7815 99.8629 43.1942 99.8629 47.3894C99.8629 51.5846 96.4502 54.9972 92.2551 54.9972C88.0599 54.9972 84.6472 51.5846 84.6472 47.3894C84.6472 43.1942 88.0599 39.7815 92.2551 39.7815Z" fill="white"/>
<path d="M56.3894 66.9524V124.555H53.1289C45.3384 124.555 39 130.893 39 138.684C39 146.474 45.3384 152.812 53.1289 152.812H131.381C139.172 152.812 145.51 146.474 145.51 138.684C145.51 130.893 139.172 124.555 131.381 124.555H128.121V66.9524C128.121 65.1548 126.658 63.6919 124.86 63.6919H109.731V65.8656H124.86C125.46 65.8656 125.947 66.3525 125.947 66.9524V124.555H58.5631V66.9524C58.5631 66.3525 59.05 65.8656 59.6499 65.8656H94.1026V63.6919H59.6499C57.8523 63.6919 56.3894 65.1548 56.3894 66.9524ZM131.381 126.728C137.974 126.728 143.336 132.091 143.336 138.684C143.336 145.276 137.974 150.639 131.381 150.639H53.1289C46.5361 150.639 41.1737 145.276 41.1737 138.684C41.1737 132.091 46.5361 126.728 53.1289 126.728C82.4278 126.728 102.241 126.728 131.381 126.728Z" fill="white"/>
<path d="M92.255 52.8236C95.2503 52.8236 97.6892 50.3847 97.6892 47.3894C97.6892 44.3941 95.2503 41.9552 92.255 41.9552C89.2597 41.9552 86.8208 44.3941 86.8208 47.3894C86.8208 50.3847 89.2597 52.8236 92.255 52.8236ZM92.255 44.1289C94.0526 44.1289 95.5155 45.5918 95.5155 47.3894C95.5155 49.187 94.0526 50.6499 92.255 50.6499C90.4574 50.6499 88.9945 49.187 88.9945 47.3894C88.9945 45.5918 90.4574 44.1289 92.255 44.1289Z" fill="white"/>
<path d="M87.6533 74.9276L65.0906 110.811C62.8147 114.43 65.4123 119.138 69.6922 119.138H114.818C119.095 119.138 121.697 114.434 119.419 110.811L96.8566 74.9276C94.7242 71.5367 89.7835 71.5432 87.6533 74.9276ZM95.0155 76.0862L117.578 111.969C118.945 114.143 117.383 116.964 114.818 116.964H69.6922C67.1273 116.964 65.5644 114.141 66.9317 111.969L89.4944 76.0862C90.7725 74.0538 93.7374 74.0538 95.0155 76.0862Z" fill="white"/>
<path d="M89.3333 78.349L67.5966 113.128C67.1423 113.852 67.6661 114.791 68.5182 114.791H111.992C112.842 114.791 113.368 113.852 112.913 113.128L91.1766 78.349C90.7788 77.7142 89.7311 77.7142 89.3333 78.349ZM110.031 112.617H70.4789L90.2549 80.9769L110.031 112.617Z" fill="white"/>
<path d="M43.3473 138.684C43.3473 144.077 47.7359 148.465 53.1288 148.465H131.381C136.774 148.465 141.163 144.077 141.163 138.684C141.163 133.291 136.774 128.902 131.381 128.902H53.1288C47.7359 128.902 43.3473 133.291 43.3473 138.684ZM138.989 138.684C138.989 142.879 135.576 146.291 131.381 146.291H53.1288C48.9336 146.291 45.521 142.879 45.521 138.684C45.521 134.488 48.9336 131.076 53.1288 131.076H131.381C135.576 131.076 138.989 134.488 138.989 138.684Z" fill="white"/>
<path d="M47.6947 138.684C47.6947 141.679 50.1336 144.118 53.1289 144.118C56.1242 144.118 58.5631 141.679 58.5631 138.684C58.5631 135.688 56.1242 133.25 53.1289 133.25C50.1336 133.25 47.6947 135.688 47.6947 138.684ZM56.3894 138.684C56.3894 140.481 54.9265 141.944 53.1289 141.944C51.3313 141.944 49.8684 140.481 49.8684 138.684C49.8684 136.886 51.3313 135.423 53.1289 135.423C54.9265 135.423 56.3894 136.886 56.3894 138.684Z" fill="white"/>
<path d="M131.381 144.118C134.376 144.118 136.815 141.679 136.815 138.684C136.815 135.688 134.376 133.25 131.381 133.25C128.386 133.25 125.947 135.688 125.947 138.684C125.947 141.679 128.386 144.118 131.381 144.118ZM131.381 135.423C133.179 135.423 134.642 136.886 134.642 138.684C134.642 140.481 133.179 141.944 131.381 141.944C129.583 141.944 128.121 140.481 128.121 138.684C128.121 136.886 129.583 135.423 131.381 135.423Z" fill="white"/>
<path d="M92.255 144.118C95.2503 144.118 97.6892 141.679 97.6892 138.684C97.6892 135.688 95.2503 133.25 92.255 133.25C89.2597 133.25 86.8208 135.688 86.8208 138.684C86.8208 141.679 89.2597 144.118 92.255 144.118ZM92.255 135.423C94.0526 135.423 95.5155 136.886 95.5155 138.684C95.5155 140.481 94.0526 141.944 92.255 141.944C90.4574 141.944 88.9945 140.481 88.9945 138.684C88.9945 136.886 90.4574 135.423 92.255 135.423Z" fill="white"/>
<path d="M111.818 144.118C114.813 144.118 117.252 141.679 117.252 138.684C117.252 135.688 114.813 133.25 111.818 133.25C108.823 133.25 106.384 135.688 106.384 138.684C106.384 141.679 108.823 144.118 111.818 144.118ZM111.818 135.423C113.616 135.423 115.078 136.886 115.078 138.684C115.078 140.481 113.616 141.944 111.818 141.944C110.02 141.944 108.557 140.481 108.557 138.684C108.557 136.886 110.02 135.423 111.818 135.423Z" fill="white"/>
<path d="M72.6919 144.118C75.6872 144.118 78.1261 141.679 78.1261 138.684C78.1261 135.688 75.6872 133.25 72.6919 133.25C69.6966 133.25 67.2577 135.688 67.2577 138.684C67.2577 141.679 69.6966 144.118 72.6919 144.118ZM72.6919 135.423C74.4895 135.423 75.9524 136.886 75.9524 138.684C75.9524 140.481 74.4895 141.944 72.6919 141.944C70.8942 141.944 69.4314 140.481 69.4314 138.684C69.4314 136.886 70.8942 135.423 72.6919 135.423Z" fill="white"/>
<path d="M93.3418 103.905H91.1681V108.252H93.3418V103.905Z" fill="white"/>
<path d="M93.3418 90.8628H91.1681V99.5575H93.3418V90.8628Z" fill="white"/>
</svg>
