<svg width="182" height="182" viewBox="0 0 182 182" fill="none" xmlns="http://www.w3.org/2000/svg">
<rect width="182" height="182" rx="91" fill="#F8A458"/>
<path d="M132.461 79.2188V44.4219C132.461 42.7291 131.083 41.3516 129.391 41.3516H51.6094C49.9166 41.3516 48.5391 42.7291 48.5391 44.4219V71.0312H50.5859V44.4219C50.5859 43.8569 51.0444 43.3984 51.6094 43.3984H129.391C129.954 43.3984 130.414 43.8569 130.414 44.4219V79.2188H132.461Z" fill="white"/>
<path d="M76.8105 55.4525C77.2711 55.1086 77.357 54.4495 76.9968 53.9951C73.6686 49.8256 68.4388 48.4194 63.6757 50.4131C58.8901 52.417 56.1985 57.0327 56.8146 62.1744C57.357 66.6735 60.5645 70.3824 64.9878 71.6269C69.4991 72.8939 74.0779 71.2728 76.9968 67.5761C77.3529 67.1258 77.267 66.4667 76.8064 66.1249L69.6956 60.7907L76.8105 55.4525ZM74.6981 67.1033C72.2583 69.6496 68.9014 70.6014 65.5404 69.6598C61.9154 68.6385 59.2872 65.607 58.8451 61.9329C58.3395 57.7245 60.546 53.946 64.4638 52.3044C67.8472 50.888 71.7936 51.4447 74.6981 54.4782L67.3724 59.974C66.8258 60.3834 66.8258 61.2022 67.3724 61.6115L74.6981 67.1033Z" fill="white"/>
<path d="M84.7073 66.9375C87.4174 63.3002 87.4154 58.2505 84.7033 54.6562C84.3655 54.208 83.7228 54.1179 83.2725 54.4536L75.9058 59.9801C75.3552 60.3916 75.3613 61.2124 75.9037 61.6176L83.2745 67.1463C83.733 67.4901 84.3758 67.3857 84.7073 66.9375ZM83.6327 56.744C85.0512 59.231 85.0492 62.3402 83.6286 64.8538L78.2249 60.803L83.6327 56.744Z" fill="white"/>
<path d="M40.3516 77.1719V138.578C40.3516 140.271 41.7291 141.648 43.4219 141.648H137.578C139.271 141.648 140.648 140.271 140.648 138.578V85.3594C140.648 83.6666 139.271 82.2891 137.578 82.2891H71.2962C70.9053 82.2891 70.5552 82.0721 70.3813 81.7241L67.4194 75.7984C66.8954 74.7525 65.8433 74.1016 64.6725 74.1016H43.4219C41.7291 74.1016 40.3516 75.4791 40.3516 77.1719ZM42.3984 77.1719C42.3984 76.6069 42.8569 76.1484 43.4219 76.1484H64.6725C65.0635 76.1484 65.4135 76.3654 65.5875 76.7134L68.5493 82.6391C69.0733 83.685 70.1254 84.3359 71.2962 84.3359H137.578C138.141 84.3359 138.602 84.7944 138.602 85.3594V138.578C138.602 139.143 138.141 139.602 137.578 139.602H43.4219C42.8569 139.602 42.3984 139.143 42.3984 138.578V77.1719Z" fill="white"/>
<path d="M90.5 133.461C108.077 133.461 122.816 118.586 126.916 114.028C127.97 112.855 127.97 111.084 126.916 109.91C122.816 105.351 108.077 90.4766 90.5 90.4766C72.9317 90.4766 58.1839 105.351 54.082 109.91C53.0279 111.082 53.0279 112.853 54.082 114.028C58.1839 118.586 72.9317 133.461 90.5 133.461ZM55.6049 111.279C59.5635 106.878 73.777 92.5234 90.5 92.5234C107.231 92.5234 121.436 106.878 125.393 111.277C125.747 111.672 125.747 112.266 125.393 112.659C121.436 117.059 107.231 131.414 90.5 131.414C73.777 131.414 59.5635 117.059 55.6069 112.661C55.2528 112.266 55.2528 111.672 55.6049 111.279Z" fill="white"/>
<path d="M90.5 129.367C100.094 129.367 107.898 121.562 107.898 111.969C107.898 102.375 100.094 94.5703 90.5 94.5703C80.9063 94.5703 73.1016 102.375 73.1016 111.969C73.1016 121.562 80.9063 129.367 90.5 129.367ZM90.5 96.6172C98.9659 96.6172 105.852 103.503 105.852 111.969C105.852 120.435 98.9659 127.32 90.5 127.32C82.0341 127.32 75.1484 120.435 75.1484 111.969C75.1484 103.503 82.0341 96.6172 90.5 96.6172Z" fill="white"/>
<path d="M90.5 121.18C95.5783 121.18 99.7109 117.047 99.7109 111.969C99.7109 111.177 99.5943 110.397 99.3998 109.637C100.806 105.707 97.1257 101.876 93.1241 103.177C87.3826 101.333 81.2891 105.746 81.2891 111.969C81.2891 117.047 85.4217 121.18 90.5 121.18ZM97.6641 107.951C97.6641 109.603 96.3213 110.945 94.6695 110.945C93.0177 110.945 91.6749 109.603 91.6749 107.951C91.6749 106.299 93.0177 104.956 94.6695 104.956C96.3213 104.956 97.6641 106.299 97.6641 107.951ZM90.7456 104.825C90.0579 105.687 89.628 106.766 89.628 107.951C89.628 110.73 91.8898 112.992 94.6695 112.992C95.7932 112.992 96.8228 112.609 97.662 111.985C97.6538 115.927 94.4443 119.133 90.5 119.133C86.5495 119.133 83.3359 115.919 83.3359 111.969C83.3359 108.078 86.5147 104.686 90.7456 104.825Z" fill="white"/>
<path d="M121.203 96.6172H122.227V97.6406C122.227 99.3334 123.604 100.711 125.297 100.711C126.99 100.711 128.367 99.3334 128.367 97.6406V96.6172H129.391C131.083 96.6172 132.461 95.2396 132.461 93.5469C132.461 91.8541 131.083 90.4766 129.391 90.4766H128.367V89.4531C128.367 87.7604 126.99 86.3828 125.297 86.3828C123.604 86.3828 122.227 87.7604 122.227 89.4531V90.4766H121.203C119.51 90.4766 118.133 91.8541 118.133 93.5469C118.133 95.2396 119.51 96.6172 121.203 96.6172ZM121.203 92.5234H123.25C123.815 92.5234 124.273 92.0649 124.273 91.5V89.4531C124.273 88.8882 124.734 88.4297 125.297 88.4297C125.86 88.4297 126.32 88.8882 126.32 89.4531V91.5C126.32 92.0649 126.779 92.5234 127.344 92.5234H129.391C129.954 92.5234 130.414 92.9819 130.414 93.5469C130.414 94.1118 129.954 94.5703 129.391 94.5703H127.344C126.779 94.5703 126.32 95.0288 126.32 95.5938V97.6406C126.32 98.2056 125.86 98.6641 125.297 98.6641C124.734 98.6641 124.273 98.2056 124.273 97.6406V95.5938C124.273 95.0288 123.815 94.5703 123.25 94.5703H121.203C120.64 94.5703 120.18 94.1118 120.18 93.5469C120.18 92.9819 120.64 92.5234 121.203 92.5234Z" fill="white"/>
<path d="M51.6094 133.461H52.6328V134.484C52.6328 136.177 54.0104 137.555 55.7031 137.555C57.3959 137.555 58.7734 136.177 58.7734 134.484V133.461H59.7969C61.4896 133.461 62.8672 132.083 62.8672 130.391C62.8672 128.698 61.4896 127.32 59.7969 127.32H58.7734V126.297C58.7734 124.604 57.3959 123.227 55.7031 123.227C54.0104 123.227 52.6328 124.604 52.6328 126.297V127.32H51.6094C49.9166 127.32 48.5391 128.698 48.5391 130.391C48.5391 132.083 49.9166 133.461 51.6094 133.461ZM51.6094 129.367H53.6562C54.2212 129.367 54.6797 128.909 54.6797 128.344V126.297C54.6797 125.732 55.1382 125.273 55.7031 125.273C56.2681 125.273 56.7266 125.732 56.7266 126.297V128.344C56.7266 128.909 57.1851 129.367 57.75 129.367H59.7969C60.3618 129.367 60.8203 129.826 60.8203 130.391C60.8203 130.956 60.3618 131.414 59.7969 131.414H57.75C57.1851 131.414 56.7266 131.873 56.7266 132.438V134.484C56.7266 135.049 56.2681 135.508 55.7031 135.508C55.1382 135.508 54.6797 135.049 54.6797 134.484V132.438C54.6797 131.873 54.2212 131.414 53.6562 131.414H51.6094C51.0444 131.414 50.5859 130.956 50.5859 130.391C50.5859 129.826 51.0444 129.367 51.6094 129.367Z" fill="white"/>
<path d="M114.604 59.6649C114.999 59.8635 115.474 59.7857 115.785 59.4725L123.973 51.285L122.525 49.8379L114.86 57.5034L107.34 53.7392C107.012 53.5755 106.617 53.6 106.314 53.8027L95.6172 60.9463V48.532H93.5703V62.8601C93.5703 63.425 94.0288 63.8835 94.5938 63.8835H123.25V61.8367H97.969L106.957 55.8373L114.604 59.6649Z" fill="white"/>
<path d="M123.25 70.0078H106.875V72.0547H123.25V70.0078Z" fill="white"/>
<path d="M123.25 74.1016H94.5938V76.1484H123.25V74.1016Z" fill="white"/>
<path d="M102.781 70.0078H94.5938V72.0547H102.781V70.0078Z" fill="white"/>
</svg>
