<svg width="182" height="182" viewBox="0 0 182 182" fill="none" xmlns="http://www.w3.org/2000/svg">
<rect width="182" height="182" rx="91" fill="#F8A458"/>
<path d="M140.648 79.2188V50.5625C140.648 49.8952 140.579 49.2402 140.44 48.6221L138.442 49.0662C138.548 49.5411 138.602 50.0446 138.602 50.5625V79.2188C138.602 83.1692 135.388 86.3828 131.438 86.3828H99.5267C98.7243 86.3828 97.9404 86.7083 97.3693 87.2773L91.2287 93.4179C90.8336 93.813 90.1643 93.813 89.7693 93.4179L83.6286 87.2753C83.0596 86.7103 82.2736 86.3828 81.4733 86.3828H49.5625C45.612 86.3828 42.3984 83.1692 42.3984 79.2188V50.5625C42.3984 46.612 45.612 43.3984 49.5625 43.3984H116.946V41.3516H49.5625C44.4842 41.3516 40.3516 45.4842 40.3516 50.5625V79.2188C40.3516 84.297 44.4842 88.4297 49.5625 88.4297H81.4733C81.7291 88.4297 82.0014 88.5443 82.1835 88.7244L88.3242 94.8651C89.5257 96.0645 91.4764 96.0645 92.6779 94.8651L98.8185 88.7265C99.0007 88.5443 99.2729 88.4297 99.5288 88.4297H131.438C136.516 88.4297 140.648 84.297 140.648 79.2188Z" fill="white"/>
<path d="M139.15 37.5567L136.256 34.6624C134.262 32.6667 131.014 32.6667 129.018 34.6624C122.257 41.4233 107.831 55.8476 101.127 62.5593C101.019 62.6678 100.919 62.8397 100.88 62.9605C99.7683 66.2928 99.7785 66.2498 97.8278 72.1018C97.0337 74.4782 99.2811 76.7871 101.711 75.9868C105.047 74.8733 107.518 74.0443 110.854 72.9328C110.975 72.8919 111.145 72.7937 111.253 72.6852C148.654 35.3174 123.6 60.3466 139.15 44.7924C141.089 42.8561 141.197 39.6077 139.15 37.5567ZM134.807 36.1096L137.701 39.0038C138.894 40.1972 138.9 42.1478 137.701 43.3453L135.531 45.517C129.88 39.8656 131.769 41.7569 128.294 38.2813L130.463 36.1096C131.663 34.9121 133.611 34.9162 134.807 36.1096ZM134.084 46.9641C133.55 47.4984 133.689 47.3592 132.637 48.4113L125.401 41.1756L126.848 39.7284C129.462 42.3423 131.46 44.3401 134.084 46.9641ZM101.576 67.3572C102.083 65.8281 101.985 66.1249 102.3 65.1793C102.3 65.1793 108.111 70.9904 108.635 71.5144L106.46 72.241L101.576 67.3572ZM101.056 74.0423C100.305 74.3063 99.494 73.5858 99.7724 72.7568L100.851 69.5289L104.29 72.9656L101.056 74.0423ZM128.294 46.9641L107.636 67.6233L106.189 66.1761L126.846 45.517L128.294 46.9641ZM109.084 69.0704L129.741 48.4113L131.196 49.8666L110.529 70.5155L109.084 69.0704ZM123.946 42.6166L125.399 44.0699L104.742 64.729L103.297 63.2839C109.518 57.0573 104.361 62.2195 123.946 42.6166Z" fill="white"/>
<path d="M116.086 148.812V144.719C116.086 137.383 110.117 131.414 102.781 131.414H97.5576C101.056 129.212 103.457 125.435 103.758 121.081C106.114 120.623 107.898 118.549 107.898 116.062C107.898 113.59 106.138 111.525 103.805 111.05V103.781C103.805 100.959 101.508 98.6641 98.6875 98.6641H92.5469C91.3351 98.6641 90.2093 98.9957 89.2084 99.5299C88.3835 98.9752 87.4174 98.6641 86.4062 98.6641H82.3125C79.4919 98.6641 77.1953 100.959 77.1953 103.781V111.05C74.8619 111.525 73.1016 113.592 73.1016 116.062C73.1016 118.549 74.8864 120.623 77.2424 121.081C77.5433 125.435 79.9443 129.214 83.4424 131.414H78.2188C70.8827 131.414 64.9141 137.383 64.9141 144.719V148.812H66.9609V144.719C66.9609 138.513 72.0106 133.461 78.2188 133.461H102.781C108.989 133.461 114.039 138.513 114.039 144.719V148.812H116.086ZM105.852 116.062C105.852 117.397 104.996 118.535 103.805 118.957V113.168C104.996 113.59 105.852 114.728 105.852 116.062ZM98.6875 100.711C100.38 100.711 101.758 102.088 101.758 103.781V110.945H92.5469C89.7263 110.945 87.4297 108.651 87.4297 105.828C87.4297 103.005 89.7263 100.711 92.5469 100.711H98.6875ZM79.2422 103.781C79.2422 102.088 80.6197 100.711 82.3125 100.711H86.4062C86.7481 100.711 87.0715 100.783 87.3806 100.889C86.1504 102.177 85.3828 103.91 85.3828 105.828C85.3828 107.208 85.7942 108.485 86.4717 109.58C85.2661 110.45 83.8292 110.945 82.3125 110.945H79.2422V103.781ZM75.1484 116.062C75.1484 114.728 76.004 113.59 77.1953 113.168V118.957C76.004 118.535 75.1484 117.397 75.1484 116.062ZM79.2422 120.156V112.992H82.3125C84.3123 112.992 86.2097 112.319 87.7858 111.14C89.0549 112.278 90.7129 112.992 92.5469 112.992H101.758V120.156C101.758 126.362 96.7082 131.414 90.5 131.414C84.2918 131.414 79.2422 126.362 79.2422 120.156Z" fill="white"/>
<path d="M51.6094 59.7734H63.8906C65.5834 59.7734 66.9609 58.3959 66.9609 56.7031C66.9609 55.0104 65.5834 53.6328 63.8906 53.6328H51.6094C49.9166 53.6328 48.5391 55.0104 48.5391 56.7031C48.5391 58.3959 49.9166 59.7734 51.6094 59.7734ZM51.6094 55.6797H63.8906C64.4556 55.6797 64.9141 56.1402 64.9141 56.7031C64.9141 57.266 64.4556 57.7266 63.8906 57.7266H51.6094C51.0444 57.7266 50.5859 57.266 50.5859 56.7031C50.5859 56.1402 51.0444 55.6797 51.6094 55.6797Z" fill="white"/>
<path d="M92.5469 53.6328H72.0781C70.3854 53.6328 69.0078 55.0104 69.0078 56.7031C69.0078 58.3959 70.3854 59.7734 72.0781 59.7734H92.5469C94.2396 59.7734 95.6172 58.3959 95.6172 56.7031C95.6172 55.0104 94.2396 53.6328 92.5469 53.6328ZM92.5469 57.7266H72.0781C71.5132 57.7266 71.0547 57.266 71.0547 56.7031C71.0547 56.1402 71.5132 55.6797 72.0781 55.6797H92.5469C93.1118 55.6797 93.5703 56.1402 93.5703 56.7031C93.5703 57.266 93.1118 57.7266 92.5469 57.7266Z" fill="white"/>
<path d="M80.2656 70.0078C78.5729 70.0078 77.1953 71.3854 77.1953 73.0781C77.1953 74.7709 78.5729 76.1484 80.2656 76.1484H88.4531C90.1459 76.1484 91.5234 74.7709 91.5234 73.0781C91.5234 71.3854 90.1459 70.0078 88.4531 70.0078H80.2656ZM89.4766 73.0781C89.4766 73.641 89.0181 74.1016 88.4531 74.1016H80.2656C79.7007 74.1016 79.2422 73.641 79.2422 73.0781C79.2422 72.5152 79.7007 72.0547 80.2656 72.0547H88.4531C89.0181 72.0547 89.4766 72.5152 89.4766 73.0781Z" fill="white"/>
<path d="M51.6094 70.0078C49.9166 70.0078 48.5391 71.3854 48.5391 73.0781C48.5391 74.7709 49.9166 76.1484 51.6094 76.1484H72.0781C73.7709 76.1484 75.1484 74.7709 75.1484 73.0781C75.1484 71.3854 73.7709 70.0078 72.0781 70.0078H51.6094ZM73.1016 73.0781C73.1016 73.641 72.6431 74.1016 72.0781 74.1016H51.6094C51.0444 74.1016 50.5859 73.641 50.5859 73.0781C50.5859 72.5152 51.0444 72.0547 51.6094 72.0547H72.0781C72.6431 72.0547 73.1016 72.5152 73.1016 73.0781Z" fill="white"/>
<path d="M95.6172 64.8906C95.6172 63.1979 94.2396 61.8203 92.5469 61.8203H51.6094C49.9166 61.8203 48.5391 63.1979 48.5391 64.8906C48.5391 66.5834 49.9166 67.9609 51.6094 67.9609H92.5469C94.2396 67.9609 95.6172 66.5834 95.6172 64.8906ZM50.5859 64.8906C50.5859 64.3277 51.0444 63.8672 51.6094 63.8672H92.5469C93.1118 63.8672 93.5703 64.3277 93.5703 64.8906C93.5703 65.4535 93.1118 65.9141 92.5469 65.9141H51.6094C51.0444 65.9141 50.5859 65.4535 50.5859 64.8906Z" fill="white"/>
<path d="M85.3828 118.109C85.948 118.109 86.4062 117.651 86.4062 117.086C86.4062 116.521 85.948 116.062 85.3828 116.062C84.8176 116.062 84.3594 116.521 84.3594 117.086C84.3594 117.651 84.8176 118.109 85.3828 118.109Z" fill="white"/>
<path d="M95.6172 118.109C96.1824 118.109 96.6406 117.651 96.6406 117.086C96.6406 116.521 96.1824 116.062 95.6172 116.062C95.052 116.062 94.5938 116.521 94.5938 117.086C94.5938 117.651 95.052 118.109 95.6172 118.109Z" fill="white"/>
<path d="M90.5 123.227C88.8072 123.227 87.4297 121.849 87.4297 120.156H85.3828C85.3828 122.979 87.6794 125.273 90.5 125.273C93.3206 125.273 95.6172 122.979 95.6172 120.156H93.5703C93.5703 121.849 92.1928 123.227 90.5 123.227Z" fill="white"/>
</svg>
