<svg width="510" height="510" viewBox="0 0 510 510" fill="none" xmlns="http://www.w3.org/2000/svg"><ellipse cx="259" cy="254.5" rx="200" ry="200.5" fill="#6F6F6F"/><path d="M255 42.5C139.804 42.5 42.5 139.804 42.5 255C42.5 370.196 139.804 467.5 255 467.5C370.196 467.5 467.5 370.196 467.5 255C467.5 139.804 370.196 42.5 255 42.5ZM255 148.75C291.699 148.75 318.75 175.78 318.75 212.5C318.75 249.22 291.699 276.25 255 276.25C218.322 276.25 191.25 249.22 191.25 212.5C191.25 175.78 218.322 148.75 255 148.75ZM146.497 356.405C165.559 328.355 197.349 309.655 233.75 309.655H276.25C312.672 309.655 344.441 328.355 363.503 356.405C336.345 385.475 297.819 403.75 255 403.75C212.181 403.75 173.655 385.475 146.497 356.405Z" fill="#BCBCBC"/></svg>